Coordinates
version=1
nRows=16
nColumns=36
inDegrees=yes

Units are S.I. units (second, meters, Newtons, ...)
If the header above contains a line with 'inDegrees', this indicates whether rotational values are in degrees (yes) or radians (no).

endheader
time	pelvis_tilt	pelvis_list	pelvis_rotation	pelvis_tx	pelvis_ty	pelvis_tz	hip_flexion_r	hip_adduction_r	hip_rotation_r	knee_angle_r	knee_angle_r_beta	ankle_angle_r	subtalar_angle_r	mtp_angle_r	hip_flexion_l	hip_adduction_l	hip_rotation_l	knee_angle_l	knee_angle_l_beta	ankle_angle_l	subtalar_angle_l	mtp_angle_l	lumbar_extension	lumbar_bending	lumbar_rotation	arm_flex_r	arm_add_r	arm_rot_r	elbow_flex_r	pro_sup_r	arm_flex_l	arm_add_l	arm_rot_l	elbow_flex_l	pro_sup_l
      4.44166670	     -6.33416500	     -0.37253679	      1.87392971	      0.29737361	      1.06852998	     -0.07343144	      6.52172290	     -2.23110026	     -2.22020902	      4.20520298	      0.07339464	      5.46682891	     -9.82156217	     -7.49999987	      6.79230015	     -2.91084279	     -3.09342134	      6.39954768	      0.11169318	      7.28115165	     -3.27617464	     -7.49999987	     -3.36624707	     -0.83293608	      1.46445805	     -7.72270082	     -9.11594234	     -0.65041512	     34.29627739	     83.67406362	     -7.30026145	     -7.28660973	     -2.66090893	     31.71703519	     89.87874548
      4.44583330	     -6.35797534	     -0.33766166	      1.88593041	      0.29721499	      1.07172374	     -0.07427975	      6.47807323	     -2.28368525	     -2.21657370	      4.17153104	      0.07280695	      5.47871916	     -9.75445283	     -7.49999987	      6.77460169	     -2.86828750	     -3.18216198	      6.34931775	      0.11081650	      7.20262080	     -3.16415454	     -7.49999987	     -3.31744312	     -0.85957114	      1.45956069	     -7.73358431	     -9.09685686	     -0.61795809	     34.32352280	     82.48269707	     -7.32437240	     -7.21207016	     -2.61667436	     31.78601245	     88.60892970
      4.45000000	     -6.36370807	     -0.32658132	      1.92288317	      0.29526357	      1.07308390	     -0.07248807	      6.45709760	     -2.28452944	     -2.20096697	      4.09774342	      0.07151911	      5.45754472	     -9.64914984	     -7.49999987	      6.78058766	     -2.85430527	     -3.19116340	      6.31776549	      0.11026581	      7.09021542	     -3.16925914	     -7.49999987	     -3.32450949	     -0.88042736	      1.41576336	     -7.63597765	     -9.06939152	     -0.48594946	     34.26154343	     82.30882636	     -7.17760220	     -7.24877951	     -2.46175910	     31.71852067	     88.42560067
      4.45416670	     -6.33175281	     -0.30438050	      2.00483632	      0.29716790	      1.07175087	     -0.07338918	      6.37281115	     -2.32336873	     -2.32443516	      4.06059372	      0.07087073	      5.42699208	     -9.49663652	     -7.49999987	      6.73587816	     -2.81971330	     -3.15900418	      6.27156375	      0.10945944	      6.95427979	     -3.18991786	     -7.49999987	     -3.39267321	     -0.89455935	      1.34239235	     -7.61587722	     -9.03307502	     -0.38770363	     34.33879470	     81.16386110	     -7.14978425	     -7.27928385	     -2.28680991	     31.85531063	     87.15654768
      4.45833330	     -6.38214710	     -0.30775719	      1.99618732	      0.29660002	      1.07320853	     -0.07270471	      6.41312380	     -2.31540227	     -2.32010753	      4.07897835	      0.07119160	      5.40474749	     -9.43195190	     -7.49999987	      6.78238498	     -2.83969151	     -3.30473968	      6.26772784	      0.10939249	      6.96669962	     -3.09845055	     -7.49999987	     -3.36179666	     -0.90893390	      1.40830355	     -7.62522467	     -8.93197869	     -1.16562139	     34.36699369	     86.11924085	     -7.12120055	     -7.18173211	     -3.15912146	     31.93645644	     92.23448180
      4.46250000	     -6.28907565	     -0.27456915	      2.05322611	      0.29658375	      1.07228017	     -0.07227399	      6.28962001	     -2.35191986	     -2.38284336	      4.07546661	      0.07113031	      5.39817800	     -9.45678005	     -7.49999987	      6.65916330	     -2.80329840	     -3.31327208	      6.20191858	      0.10824390	      6.94072990	     -3.08527171	     -7.49999987	     -3.53314037	     -0.95415232	      1.42909591	     -7.53900620	     -8.88410692	     -1.06019760	     34.35054834	     85.20929400	     -7.02020678	     -7.20293263	     -3.07962947	     32.07839804	     91.29282277
      4.46666670	     -6.26269926	     -0.25721617	      2.09485699	      0.29707713	      1.07412833	     -0.07307141	      6.23051106	     -2.37303085	     -2.52208195	      4.02260811	      0.07020776	      5.38265532	     -9.26782296	     -7.49999987	      6.61727647	     -2.78263472	     -3.32553134	      6.14380424	      0.10722961	      6.85996771	     -3.01593735	     -7.49999987	     -3.61050094	     -0.94923521	      1.38142273	     -7.47506427	     -8.89925129	     -0.81842168	     34.33276289	     83.22568756	     -7.01821789	     -7.17621995	     -2.74844489	     32.16868722	     89.18440508
      4.47083330	     -6.37491570	     -0.25418853	      2.11258494	      0.29658810	      1.07252263	     -0.07226396	      6.34615649	     -2.36309549	     -2.54766383	      3.99616255	      0.06974619	      5.35533209	     -9.21332221	     -7.49999987	      6.74350968	     -2.78408367	     -3.36053445	      6.15303778	      0.10739077	      6.81080644	     -2.98717275	     -7.49999987	     -3.46464634	     -0.96053132	      1.35686193	     -7.56502736	     -8.89865584	     -0.76829568	     34.58352171	     82.97644450	     -7.07547276	     -7.19544852	     -2.69062127	     32.43856618	     88.92454748
      4.47500000	     -6.23602452	     -0.23030084	      2.09111196	      0.29554160	      1.07023752	     -0.07139644	      6.24885214	     -2.35911901	     -2.53262421	      4.02806305	      0.07030296	      5.34273082	     -9.27707893	     -7.49999987	      6.58460205	     -2.78656838	     -3.47006189	      6.12109769	      0.10683331	      6.84414176	     -2.85355018	     -7.49999987	     -3.73059812	     -0.98872717	      1.41558588	     -7.34921983	     -8.90767266	     -0.57705322	     34.44343302	     82.93059473	     -6.88530803	     -7.24318015	     -2.46834991	     32.38526493	     88.89413547
      4.47916670	     -6.26468607	     -0.22766169	      2.13509617	      0.29594314	      1.06816500	     -0.07155543	      6.31211962	     -2.35026875	     -2.65999540	      4.07685950	      0.07115462	      5.41121830	     -9.16567022	     -7.49999987	      6.65350617	     -2.79681954	     -3.43020165	      6.15840767	      0.10748449	      6.83258019	     -2.90046251	     -7.49999987	     -3.74488459	     -0.97771110	      1.34960169	     -7.37292166	     -8.90702044	     -0.47666828	     34.66642187	     81.86739799	     -6.90077582	     -7.29341731	     -2.31268980	     32.69260013	     87.72725167
      4.48333330	     -6.35677328	     -0.23683888	      2.12616632	      0.29556737	      1.06688289	     -0.07107407	      6.48295003	     -2.32059083	     -2.59238862	      4.16043375	      0.07261327	      5.52964392	     -9.22838632	     -7.49999987	      6.83227694	     -2.84072376	     -3.54463322	      6.29996404	      0.10995512	      7.01952297	     -2.71694365	     -7.49999987	     -3.64024127	     -0.96848948	      1.43193151	     -7.38435006	     -8.85918622	     -1.08765100	     34.75961107	     86.64970641	     -6.82481675	     -7.29793194	     -2.77478589	     32.74464408	     92.59072486
      4.48750000	     -6.36934634	     -0.23340928	      2.13250966	      0.29534874	      1.06951837	     -0.07050602	      6.53429414	     -2.31507335	     -2.61542701	      4.19855271	      0.07327857	      5.61215041	     -9.17954575	     -7.49999987	      6.86435617	     -2.85818868	     -3.51785757	      6.31683881	      0.11024964	      7.05046129	     -2.73107603	     -7.49999987	     -3.66039221	     -0.95488723	      1.39444980	     -7.32818297	     -8.85297789	     -0.98923968	     34.90070566	     85.56186274	     -6.78137279	     -7.34204016	     -2.65717560	     32.91161454	     91.48592284
      4.49166670	     -6.39688967	     -0.22415062	      2.13314291	      0.29538805	      1.07155445	     -0.07179649	      6.58843820	     -2.31190470	     -2.64949446	      4.18095295	      0.07297139	      5.61535651	     -9.10899419	     -7.49999987	      6.89998541	     -2.85617199	     -3.55079902	      6.30047799	      0.10996409	      7.00084826	     -2.65734269	     -7.49999987	     -3.64463539	     -0.93565203	      1.37512445	     -7.26796450	     -8.83855416	     -0.86392647	     34.89638389	     83.86186832	     -6.72452832	     -7.32370652	     -2.44987825	     32.97523030	     89.70686285
      4.49583330	     -6.47346884	     -0.24734707	      2.12517529	      0.29547889	      1.07013301	     -0.07157867	      6.72131964	     -2.25384892	     -2.55824803	      4.20317805	      0.07335930	      5.57226706	     -9.20279870	     -7.49999987	      7.04883699	     -2.89520648	     -3.69176454	      6.42609025	      0.11215643	      7.08753078	     -2.51316555	     -7.49999987	     -3.51315011	     -0.86778198	      1.43655996	     -7.20803798	     -8.99527152	     -0.21515555	     34.73358625	     84.22818863	     -6.49736895	     -7.49867705	     -1.42604223	     32.75403323	     90.12085204
      4.50000000	     -6.50272178	     -0.19141812	      2.16957543	      0.29617090	      1.07353377	     -0.07348684	      6.72041295	     -2.34982396	     -2.65102334	      4.19592026	      0.07323262	      5.50537562	     -9.18298026	     -7.49999987	      7.05092809	     -2.79629272	     -3.69923309	      6.38799038	      0.11149146	      6.96634437	     -2.49016825	     -7.49999987	     -3.50150106	     -0.86399810	      1.35992946	     -7.22637673	     -8.95956707	     -0.39442616	     34.93034631	     83.46016643	     -6.54861449	     -7.40142940	     -1.51697713	     32.93739364	     89.28316567
      4.50416670	     -6.41392295	     -0.15089557	      2.15849583	      0.29567449	      1.07499246	     -0.07307549	      6.57967096	     -2.41105770	     -2.69033745	      4.11385013	      0.07180023	      5.52103218	     -9.04070545	     -7.49999987	      6.93264481	     -2.72357791	     -3.73807695	      6.36040658	      0.11101004	      6.84121240	     -2.52250376	     -7.49999987	     -3.66446597	     -0.85513903	      1.36525558	     -7.10286881	     -8.95672673	     -0.43517392	     34.94167567	     82.83244634	     -6.43418616	     -7.32030455	     -1.46662210	     32.95030166	     88.61642614
